<?xml version="1.0" encoding="utf-8" ?><svg xmlns="http://www.w3.org/2000/svg" xmlns:xlink="http://www.w3.org/1999/xlink" width="1024" height="1024" viewBox="0 0 1024 1024"><path fill="#0D1117" d="M0 0L1024 0L1024 1024L0 1024L0 0Z"/><path fill="#7C3AED" d="M511.564 287.114C520.764 287.071 528.192 295.302 526.998 304.455C526.211 310.49 523.955 312.986 519.547 316.593L519.492 386.172C533.51 386.144 547.683 385.908 561.684 386.177C594.221 386.803 624.61 400.58 647.666 423.334C667.235 442.292 679.836 467.298 683.431 494.305C684.744 504.362 684.703 512.778 684.774 522.858L684.923 581.768C684.939 615.149 686.953 635.46 671.804 666.721C666.197 678.571 658.618 689.382 649.391 698.694C629.739 718.737 603.95 731.635 576.125 735.338C567.855 736.377 555.51 736.432 547.067 736.466L511.25 736.509C472.412 736.317 437.168 740.885 402.138 719.997C359.862 694.788 339.423 656.513 338.984 607.986L338.866 543.992C338.853 529.916 338.359 515.13 339.437 501.138C343.846 441.325 394.79 391.482 454.237 386.777C470.288 385.506 489.524 386.273 505.912 386.231C505.599 363.168 506.125 339.997 505.638 316.907C501.329 314.427 498.14 310.744 497.131 305.771C496.301 301.579 497.229 297.231 499.7 293.744C502.937 289.181 506.484 288.038 511.564 287.114Z"/><path fill="#0D1117" d="M545.457 514.017L603.085 513.992C602.794 533.415 603.028 553.421 603.029 572.885C585.818 572.02 563.058 572.706 545.508 572.749L545.457 514.017Z"/><path fill="#0D1117" d="M421.146 514.004L478.898 513.976C478.669 530.399 479.219 554.838 478.903 572.055C478.714 572.303 478.525 572.552 478.336 572.8C459.58 572.507 440.227 572.787 421.428 572.868C421.442 554.942 422.114 531.514 421.146 514.004Z"/></svg>