<?xml version="1.0" encoding="utf-8" ?><svg xmlns="http://www.w3.org/2000/svg" xmlns:xlink="http://www.w3.org/1999/xlink" width="1024" height="1024" viewBox="0 0 1024 1024"><path fill="white" d="M0 0L1024 0L1024 1024L0 1024L0 0Z"/><path fill="#7C3AED" d="M511.141 360.481C500.925 354.253 504.556 344.324 513.573 345.358C515.532 345.572 517.313 346.593 518.487 348.176C522.334 353.268 519.02 357.847 514.417 359.853C513.251 360.36 513.435 360.72 513.226 361.891C513.021 372.824 513.75 388.386 513.093 398.489C513.305 400.467 513.3 403.17 513.361 405.216C530.497 405.093 550.981 402.208 564.559 414.21C581.22 428.937 577.147 450.698 577.43 470.641C577.57 480.511 578.273 498.022 575.887 506.978C574.286 512.817 571.267 518.17 567.097 522.561C560.149 529.945 549.972 534.543 539.771 534.563C524.285 534.593 508.795 534.531 493.308 534.564C487.417 534.576 481.463 534.759 475.698 533.345C469.444 531.81 463.708 528.646 459.074 524.175C450.669 516.08 447.131 505.997 447.036 494.515L447.055 464.526C447.035 456.221 446.465 440.379 448.396 433.066C450.108 426.631 453.475 420.758 458.163 416.029C472.22 402.021 492.395 404.991 511.1 405.132C511.269 390.249 511.282 375.364 511.141 360.481Z"/><path fill="white" d="M473.043 452.323C482.155 452.095 492.389 452.391 501.617 452.477L501.666 480.899L473.044 480.947L473.043 452.323Z"/><path fill="white" d="M523.437 452.481L551.596 452.475L551.606 480.909L523.443 480.838L523.437 452.481Z"/><path fill="#0D1117" d="M674.423 577.626C686.848 576.167 693.88 578.154 701.4 588.474L701.544 578.175L716.543 578.038L716.535 625.901C716.529 643.439 719.612 668.628 698.157 676.066C680.28 682.262 659.312 677.438 653.556 657.148C653.354 655.865 653.254 655.701 653.427 654.436C655.529 652.878 663.567 653.814 666.543 653.89C672.337 665.837 686.539 669.136 697 660.179C702.676 655.318 701.541 642.66 701.46 635.391C697.426 640.285 693.399 643.841 687.041 645.327C644.006 655.378 633.939 585.87 674.423 577.626Z"/><path fill="white" d="M679.294 590.08C684.941 589.626 689.36 589.944 693.995 593.434C703.243 600.398 703.922 615.132 698.254 624.538C695.214 629.584 692.26 630.967 686.994 632.476C683.114 632.684 679.441 633.066 675.763 631.443C657.978 623.591 660.175 595.379 679.294 590.08Z"/><path fill="#0D1117" d="M123.236 560.703C136.265 560.657 149.329 560.508 162.362 560.794C169.821 561.017 179.885 564.375 183.22 571.666C189.811 586.072 184.671 594.852 172.34 601.607C174.478 602.706 177.011 603.759 178.985 605.093C187.935 611.143 188.874 620.62 186.175 630.248C178.618 645.794 164.799 644.698 150.011 644.703C141.148 644.706 132.231 644.685 123.364 644.666C123.032 616.679 122.99 588.69 123.236 560.703Z"/><path fill="white" d="M143.216 608.994C149.213 608.983 156.811 608.625 162.529 609.835L163.007 610.267C168.335 614.985 169.271 619.802 164.819 625.652C159.699 629.489 149.719 628.099 143.231 628.084C143.131 621.721 143.127 615.357 143.216 608.994Z"/><path fill="white" d="M143.396 577.348C148.841 577.211 154.289 577.29 159.727 577.586C165.668 581.344 168.046 585.845 163.333 592.123C158.988 595.283 148.658 594.835 143.411 594.216L143.396 577.348Z"/><path fill="#0D1117" d="M273.335 577.208C292.065 575.402 308.705 589.141 310.476 607.874C312.248 626.607 298.479 643.222 279.742 644.959C261.055 646.692 244.492 632.966 242.725 614.281C240.958 595.597 254.654 579.009 273.335 577.208Z"/><path fill="white" d="M275.251 594.115C290.53 594.506 292.608 610.207 286.978 621.728C285.257 625.249 281.268 626.648 277.613 627.337C259.03 627.565 258.371 597.813 275.251 594.115Z"/><path fill="#0D1117" d="M320.732 557.51L340.348 557.501L340.466 605.06C347.261 595.946 353.014 586.815 360.34 577.833L383.998 577.909C377.35 587.323 365.342 601.295 357.743 610.766C361.709 616.913 368.678 624.956 373.526 630.806L384.17 644.468L360.38 644.495C353.849 634.717 347.147 625.778 340.522 615.603L340.336 644.495L320.561 644.547L320.732 557.51Z"/><path fill="#0D1117" d="M416.045 577.169C426.193 576.121 436.42 578.457 443.508 586.234C451.39 594.882 451.973 604.979 451.441 615.986C436.971 615.853 422.501 615.847 408.031 615.969C409.006 624.05 413.649 630.111 423.112 628.093C426.279 627.418 428.22 624.996 429.72 622.217C436.485 622.121 443.251 622.127 450.016 622.236C446.126 635.229 439.343 642.669 425.434 644.936C381.06 652.169 373.719 583.108 416.045 577.169Z"/><path fill="white" d="M419.667 593.626C427.765 593.203 430.174 597.902 432.378 604.613L420.375 604.62C417.916 604.623 415.453 604.637 412.999 604.658C412.496 604.662 408.42 604.901 408.35 604.378C407.995 601.703 410.262 597.885 412.235 596.237C414.423 594.407 417.005 594.082 419.667 593.626Z"/><path fill="#0D1117" d="M866.018 577.648C868.351 577.441 870.693 577.361 873.034 577.408C885.613 577.62 895.287 583.974 900.268 595.505C903.359 602.662 903.184 609.357 902.927 616.986L854.525 617.012C858.043 634.709 876.804 638.516 886.297 624.052L891.563 624.015L901.69 624.109C898.476 635.009 890.527 643.126 878.826 645.442C845.735 651.992 830.052 615.404 845.503 589.934C849.73 582.967 857.909 579.005 866.018 577.648Z"/><path fill="white" d="M867.962 590.554C872.588 590.344 875.997 590.25 880.25 592.49C883.815 594.341 886.425 597.619 887.43 601.508L888.325 605.15C884.229 605.197 880.133 605.202 876.037 605.166L855.055 605.238L855.306 603.991C856.774 596.355 860.603 592.422 867.962 590.554Z"/><path fill="#0D1117" d="M513.666 561.46L559.589 561.488L559.624 573.483L528.377 573.484L528.436 596.861C537.702 596.94 547.207 596.771 556.491 596.713L556.376 608.974L528.101 608.859L528.06 617.625L528.078 632.534C538.367 632.785 549.181 632.697 559.516 632.747L559.497 644.82C544.852 645.198 528.253 644.776 513.452 644.646L513.666 561.46Z"/><path fill="#0D1117" d="M798.181 577.139C798.77 577.127 799.36 577.12 799.95 577.119C818.162 577.114 827.813 589.627 827.886 606.917C827.94 619.605 827.947 632.329 827.921 645.02L812.867 645.004C812.64 631.502 813.99 615.334 812.319 601.978C810.957 591.1 800.149 588.554 790.282 591.176C779.592 596.704 781.374 609.45 781.404 619.689L781.463 645.051L766.763 644.982L766.746 577.98L781.592 577.966C781.577 580.66 781.716 583.269 781.837 585.957C787.317 580.138 790.209 578.257 798.181 577.139Z"/><path fill="#0D1117" d="M605.393 577.598C625.248 576.009 636.365 585.997 636.765 606.123C637.021 619.036 636.882 632.055 636.896 644.978L622.016 644.894C621.981 631.865 622.51 618.517 621.93 605.533C621.407 593.816 612.811 588.539 601.919 590.169C588.512 594.954 590.399 608.132 590.427 619.684L590.49 645.049L575.961 645.051L576.012 578.215C580.661 578.041 585.705 578.109 590.387 578.082L590.411 585.625C595.937 580.983 598.213 579.33 605.393 577.598Z"/><path fill="#0D1117" d="M233.881 577.598C235.612 577.431 236.317 577.232 237.989 577.773C238.867 579.635 238.489 595.82 238.472 598.923C236.815 598.775 235.155 598.666 233.493 598.598C221.518 598.22 218.139 606.59 218.362 617.014C218.556 626.128 218.473 635.461 218.475 644.595C213.789 644.604 203.732 644.853 199.552 644.312C198.712 643.127 198.974 641.673 198.995 640.125L199.066 578.018C205.659 578.029 212.252 577.955 218.844 577.797C218.878 581.63 218.707 585.733 218.612 589.589C223.28 582.35 225.626 580.129 233.881 577.598Z"/><path fill="#0D1117" d="M483.15 588.452C485.331 583.865 495.234 575.601 500.389 577.239C502.442 579.781 501.583 593.918 501.552 598.279C500.458 598.207 499.363 598.151 498.267 598.113C479.125 597.475 481.985 613.841 481.944 627.147C481.926 632.936 481.986 638.771 482.009 644.555L462.504 644.589L462.496 577.93L482.314 577.877C483.075 581.684 481.839 585.767 483.15 588.452Z"/><path fill="#C4C6CA" d="M482.314 577.877C483.075 581.684 481.839 585.767 483.15 588.452C483.017 589.053 482.957 589.76 482.343 590.053C481.653 589.699 482.107 579.34 482.314 577.877Z"/><path fill="#0D1117" d="M734.591 578.034L749.081 577.917C749.241 600.283 749.204 622.649 748.97 645.013L734.462 645.066L734.591 578.034Z"/><path fill="#0D1117" d="M738.72 551.669C743.702 550.153 748.971 552.953 750.503 557.929C752.035 562.906 749.252 568.184 744.281 569.732C739.286 571.287 733.979 568.489 732.441 563.49C730.902 558.491 733.717 553.192 738.72 551.669Z"/></svg>